<?xml version="1.0" encoding="UTF-8"?>
<!DOCTYPE svg PUBLIC "-//W3C//DTD SVG 1.1//EN" "http://www.w3.org/Graphics/SVG/1.1/DTD/svg11.dtd">
<!-- Creator: CorelDRAW -->
<svg xmlns="http://www.w3.org/2000/svg" xml:space="preserve" width="1.69292in" height="1.69292in" version="1.1" style="shape-rendering:geometricPrecision; text-rendering:geometricPrecision; image-rendering:optimizeQuality; fill-rule:evenodd; clip-rule:evenodd"
viewBox="0 0 387.75 387.75"
 xmlns:xlink="http://www.w3.org/1999/xlink"
 xmlns:xodm="http://www.corel.com/coreldraw/odm/2003">
 <defs>
  <style type="text/css">
   <![CDATA[
    .fil0 {fill:white;fill-rule:nonzero}
   ]]>
  </style>
 </defs>
 <g id="Layer_x0020_1">
  <metadata id="CorelCorpID_0Corel-Layer"/>
  <path class="fil0" d="M297.18 25.14l-93.34 0 0 178.08 13.7 0 0 6.27 -13.7 0 0 153.34 93.34 0 0 -337.69zm90.58 362.61l-387.75 0 0 -6.27 56.61 0 0 -374.45c0,-1.94 0.81,-3.7 2.13,-4.98 1.3,-1.27 3.09,-2.05 5.04,-2.05l255.11 0c1.95,0 3.74,0.79 5.04,2.05l0.01 0.01c1.31,1.28 2.12,3.04 2.12,4.97l0 374.45 61.69 0 0 6.27zm-324.79 -6.27l256.75 0 0 -374.45c0,-0.21 -0.08,-0.4 -0.22,-0.53l-0.01 -0.01c-0.14,-0.14 -0.35,-0.23 -0.59,-0.23l-255.11 0c-0.24,0 -0.44,0.09 -0.59,0.23l-0.01 0.01c-0.13,0.13 -0.22,0.32 -0.22,0.53l0 374.45zm140.59 -362.61l93.92 0c1.65,0 3.16,0.67 4.26,1.73l0.01 0.01c1.1,1.08 1.79,2.57 1.79,4.21l0 338.32c0,1.64 -0.69,3.13 -1.79,4.21 -1.1,1.08 -2.62,1.75 -4.27,1.75l-93.92 0c-1.66,0 -3.17,-0.67 -4.27,-1.75 -1.1,-1.08 -1.79,-2.57 -1.79,-4.21l0 -338.32c0,-1.63 0.69,-3.12 1.79,-4.21l0.01 -0.01c1.1,-1.07 2.61,-1.73 4.26,-1.73zm-118.34 0l93.92 0c1.65,0 3.16,0.67 4.26,1.73l0.01 0.01c1.1,1.08 1.79,2.57 1.79,4.21l0 338.32c0,1.64 -0.69,3.13 -1.79,4.21 -1.1,1.08 -2.62,1.75 -4.27,1.75l-93.92 0c-1.66,0 -3.17,-0.67 -4.27,-1.75 -1.1,-1.08 -1.79,-2.57 -1.79,-4.21l0 -338.32c0,-1.64 0.69,-3.13 1.79,-4.21 1.1,-1.08 2.62,-1.75 4.27,-1.75zm93.63 6.27l-93.34 0 0 337.69 93.34 0 0 -153.34 -13.7 0 0 -6.27 13.7 0 0 -178.08zm-68.78 142.72l-9.32 8.9 -4.42 -4.48 9.32 -8.9 4.42 4.48zm37.48 -63.45l-37.08 36.87 -4.49 -4.41 37.08 -36.87 4.49 4.41zm-0.39 28.1l-30.2 28.85 -4.42 -4.48 30.2 -28.85 4.42 4.48z"/>
 </g>
</svg>
