<?xml version="1.0" encoding="UTF-8"?>
<!DOCTYPE svg PUBLIC "-//W3C//DTD SVG 1.1//EN" "http://www.w3.org/Graphics/SVG/1.1/DTD/svg11.dtd">
<!-- Creator: CorelDRAW -->
<svg xmlns="http://www.w3.org/2000/svg" xml:space="preserve" width="1.69291in" height="1.69291in" version="1.1" style="shape-rendering:geometricPrecision; text-rendering:geometricPrecision; image-rendering:optimizeQuality; fill-rule:evenodd; clip-rule:evenodd"
viewBox="0 0 387.75 387.75"
 xmlns:xlink="http://www.w3.org/1999/xlink"
 xmlns:xodm="http://www.corel.com/coreldraw/odm/2003">
 <defs>
  <style type="text/css">
   <![CDATA[
    .fil0 {fill:white;fill-rule:nonzero}
   ]]>
  </style>
 </defs>
 <g id="Layer_x0020_1">
  <metadata id="CorelCorpID_0Corel-Layer"/>
  <path class="fil0" d="M33.98 96.5l27.15 0c1.84,0 3.52,0.76 4.74,1.97l0.01 0.01c1.22,1.22 1.97,2.9 1.97,4.74l0 44.02c0,1.85 -0.76,3.54 -1.97,4.75 -1.22,1.22 -2.9,1.97 -4.75,1.97l-27.15 0c-1.85,0 -3.54,-0.76 -4.76,-1.97 -1.22,-1.22 -1.97,-2.9 -1.97,-4.75l0 -44.02c0,-1.84 0.76,-3.52 1.97,-4.74l0.01 -0.01c1.22,-1.22 2.9,-1.97 4.74,-1.97zm-17.11 -96.5l61.36 0c4.63,0 8.84,1.87 11.89,4.89l0.01 0c3.06,3.03 4.96,7.21 4.96,11.82l0 38.99 73.88 0c6.32,0 12.06,2.56 16.23,6.68l0.01 0c4.18,4.13 6.77,9.83 6.77,16.11l0 202.22c0,6.28 -2.59,11.98 -6.77,16.11l-0.01 0c-4.17,4.12 -9.92,6.68 -16.23,6.68l-73.88 0 0 84.26 -95.1 0 0 -371.04c0,-4.59 1.9,-8.78 4.97,-11.81 3.05,-3.03 7.26,-4.9 11.9,-4.9zm78.23 61.96l0 235.27 73.88 0c4.61,0 8.81,-1.86 11.85,-4.86 3.02,-3 4.91,-7.13 4.91,-11.67l0 -202.22c0,-4.54 -1.88,-8.66 -4.91,-11.66 -3.03,-3.01 -7.23,-4.87 -11.84,-4.87l-73.88 0zm-16.87 -55.7l-61.36 0c-2.92,0 -5.58,1.18 -7.5,3.08l-0.01 0c-1.91,1.89 -3.09,4.5 -3.09,7.37l0 63.66 82.58 0 0 -63.66c0,-2.86 -1.19,-5.47 -3.11,-7.37 -1.92,-1.91 -4.58,-3.08 -7.5,-3.08zm-71.97 80.37l0 270.84 82.58 0 0 -270.84 -82.58 0zm0 277.1l0 17.76 82.58 0 0 -17.76 -82.58 0zm286.39 -301.77l-73.88 0c-4.62,0 -8.81,1.86 -11.85,4.86 -3.02,3 -4.91,7.13 -4.91,11.67l0 202.22c0,4.53 1.88,8.66 4.91,11.66 3.03,3.01 7.23,4.87 11.84,4.87l73.88 0 0 -235.27zm0 241.53l-73.88 0c-6.31,0 -12.06,-2.56 -16.23,-6.68l-0.01 0c-4.18,-4.13 -6.77,-9.83 -6.77,-16.11l0 -202.22c0,-6.28 2.59,-11.98 6.77,-16.11l0.01 0c4.17,-4.12 9.92,-6.68 16.23,-6.68l73.88 0 0 -38.99c0,-4.61 1.9,-8.79 4.96,-11.82l0.01 0c3.05,-3.02 7.27,-4.89 11.89,-4.89l61.36 0c4.63,0 8.84,1.87 11.89,4.89l0.01 0c3.06,3.03 4.96,7.21 4.96,11.82l0 371.04 -95.1 0 0 -84.26zm61.12 -200.74l-27.15 0c-0.13,0 -0.25,0.05 -0.33,0.13l-0.01 0.01c-0.08,0.08 -0.13,0.2 -0.13,0.33l0 44.02c0,0.13 0.06,0.24 0.14,0.33 0.09,0.08 0.2,0.14 0.33,0.14l27.15 0c0.13,0 0.25,-0.06 0.33,-0.14 0.09,-0.09 0.14,-0.2 0.14,-0.33l0 -44.02c0,-0.13 -0.05,-0.25 -0.14,-0.34 -0.08,-0.08 -0.2,-0.14 -0.34,-0.14zm-27.15 -6.26l27.15 0c1.84,0 3.52,0.76 4.74,1.97l0.01 0.01c1.22,1.22 1.97,2.9 1.97,4.74l0 44.02c0,1.85 -0.76,3.54 -1.97,4.75 -1.22,1.22 -2.9,1.97 -4.76,1.97l-27.15 0c-1.85,0 -3.54,-0.76 -4.75,-1.97 -1.22,-1.22 -1.97,-2.9 -1.97,-4.75l0 -44.02c0,-1.84 0.76,-3.52 1.97,-4.74l0.01 -0.01c1.22,-1.22 2.9,-1.97 4.74,-1.97zm54.86 -9.87l-82.58 0 0 270.84 82.58 0 0 -270.84zm-82.58 -6.26l82.58 0 0 -63.66c0,-2.86 -1.19,-5.47 -3.11,-7.37 -1.92,-1.91 -4.58,-3.08 -7.5,-3.08l-61.36 0c-2.93,0 -5.58,1.18 -7.51,3.08 -1.91,1.9 -3.1,4.51 -3.1,7.37l0 63.66zm82.58 283.36l-82.58 0 0 17.76 82.58 0 0 -17.76zm-320.37 -260.97l-27.15 0c-0.13,0 -0.25,0.05 -0.34,0.14 -0.08,0.08 -0.14,0.2 -0.14,0.34l0 44.02c0,0.13 0.06,0.24 0.14,0.33 0.08,0.08 0.2,0.14 0.33,0.14l27.15 0c0.13,0 0.24,-0.05 0.33,-0.14 0.08,-0.09 0.14,-0.2 0.14,-0.33l0 -44.02c0,-0.13 -0.05,-0.25 -0.13,-0.33l-0.01 -0.01c-0.08,-0.08 -0.2,-0.13 -0.33,-0.13zm-22.93 16.5c-0.61,-0.6 -0.62,-1.59 -0.02,-2.21 0.6,-0.61 1.59,-0.62 2.21,-0.02l12.94 12.8 0 -5.31c0,-0.86 0.7,-1.56 1.56,-1.56 0.86,0 1.57,0.7 1.57,1.56l0 10.62 -10.72 0c-0.86,0 -1.57,-0.7 -1.57,-1.57 0,-0.86 0.7,-1.56 1.57,-1.56l5.36 0 -12.89 -12.75zm315.58 -100.7l-27.15 0c-1.98,0 -3.6,1.62 -3.6,3.6l0 44.01c0,1.98 1.62,3.6 3.6,3.6l27.15 0c1.98,0 3.6,-1.62 3.6,-3.6l0 -44.01c0,-1.98 -1.62,-3.6 -3.6,-3.6zm-319.8 0l27.15 0c1.98,0 3.6,1.62 3.6,3.6l0 44.01c0,1.98 -1.62,3.6 -3.6,3.6l-27.15 0c-1.98,0 -3.6,-1.62 -3.6,-3.6l0 -44.01c0,-1.98 1.62,-3.6 3.6,-3.6z"/>
 </g>
</svg>
