<?xml version="1.0" encoding="UTF-8"?>
<!DOCTYPE svg PUBLIC "-//W3C//DTD SVG 1.1//EN" "http://www.w3.org/Graphics/SVG/1.1/DTD/svg11.dtd">
<!-- Creator: CorelDRAW -->
<svg xmlns="http://www.w3.org/2000/svg" xml:space="preserve" width="1.69291in" height="1.69291in" version="1.1" style="shape-rendering:geometricPrecision; text-rendering:geometricPrecision; image-rendering:optimizeQuality; fill-rule:evenodd; clip-rule:evenodd"
viewBox="0 0 638.09 638.09"
 xmlns:xlink="http://www.w3.org/1999/xlink"
 xmlns:xodm="http://www.corel.com/coreldraw/odm/2003">
 <defs>
  <style type="text/css">
   <![CDATA[
    .fil0 {fill:white;fill-rule:nonzero}
   ]]>
  </style>
 </defs>
 <g id="Layer_x0020_1">
  <metadata id="CorelCorpID_0Corel-Layer"/>
  <path class="fil0" d="M5.15 638.09c-2.84,0 -5.15,-2.31 -5.15,-5.15 0,-2.84 2.31,-5.15 5.15,-5.15l131.26 0 0 -551.13 0 -57.45 0 -14.05c0,-2.84 2.31,-5.15 5.15,-5.15 2.84,0 5.15,2.31 5.15,5.15l0 8.9 97.32 0 0 -5.55c0,-2.34 0.96,-4.47 2.49,-6 1.54,-1.54 3.66,-2.49 6,-2.49l133.03 0c2.34,0 4.47,0.96 6,2.49 1.54,1.56 2.49,3.68 2.49,6l0 5.55 97.32 0 0 -8.9c0,-2.84 2.31,-5.15 5.15,-5.15 2.84,0 5.15,2.31 5.15,5.15l0 622.63 131.26 0c2.84,0 5.15,2.31 5.15,5.15 0,2.84 -2.31,5.15 -5.15,5.15l-627.79 0zm162.16 -556.29l0 545.98 304.08 0 0 -545.98 -77.35 0 0 5.86c0,2.32 -0.95,4.44 -2.49,5.98l-0.02 0.02c-1.55,1.54 -3.66,2.49 -5.98,2.49l-133.03 0c-2.32,0 -4.45,-0.96 -5.99,-2.5 -1.55,-1.53 -2.5,-3.65 -2.5,-5.99l0 -5.86 -76.72 0zm-10.3 545.98l0 -545.98 -10.3 0 0 545.98 10.3 0zm324.68 -545.98l0 545.98 9.68 0 0 -545.98 -9.68 0zm-237.66 -57.45l-97.32 0 0 47.15 13.09 0 84.23 0 0 -47.15zm150.02 47.15l82.5 0 14.83 0 0 -47.15 -97.32 0 0 47.15zm-10.3 -61.2l-129.41 0 0 8.9 0 57.45 0 9.21 129.41 0 0 -9.21 0 -57.45 0 -8.9z"/>
 </g>
</svg>
