<?xml version="1.0" encoding="UTF-8"?>
<!DOCTYPE svg PUBLIC "-//W3C//DTD SVG 1.1//EN" "http://www.w3.org/Graphics/SVG/1.1/DTD/svg11.dtd">
<!-- Creator: CorelDRAW -->
<svg xmlns="http://www.w3.org/2000/svg" xml:space="preserve" width="1.69292in" height="1.69292in" version="1.1" style="shape-rendering:geometricPrecision; text-rendering:geometricPrecision; image-rendering:optimizeQuality; fill-rule:evenodd; clip-rule:evenodd"
viewBox="0 0 835.48 835.48"
 xmlns:xlink="http://www.w3.org/1999/xlink"
 xmlns:xodm="http://www.corel.com/coreldraw/odm/2003">
 <defs>
  <style type="text/css">
   <![CDATA[
    .fil0 {fill:white;fill-rule:nonzero}
   ]]>
  </style>
 </defs>
 <g id="Layer_x0020_1">
  <metadata id="CorelCorpID_0Corel-Layer"/>
  <path class="fil0" d="M206.16 453.9l-7.52 0c-7.9,0 -15.08,3.13 -20.27,8.18 -5.18,5.03 -8.4,11.99 -8.4,19.65l0 179.92 36.19 0 0 -207.75zm-206.16 -453.9l835.48 0 0 14.21 -375.64 0 0 185.03 27.51 0 0 63.71 3.99 0c14.4,0 27.51,5.73 37.01,14.96l0.65 0.65 0 -39.99c0,-2.8 1.18,-5.36 3.1,-7.23 0.26,-0.28 0.55,-0.53 0.85,-0.76 0.38,-2.47 1.6,-4.7 3.35,-6.4 2.14,-2.07 5.08,-3.36 8.3,-3.36l50.27 0c3.22,0 6.16,1.29 8.3,3.36 1.76,1.71 2.97,3.94 3.36,6.42l0.83 0.73c1.92,1.87 3.12,4.44 3.12,7.24l0 130.5c5.52,8.07 8.75,17.72 8.75,28.07l0 42.57 7.52 0c11.88,0 22.69,4.73 30.53,12.35 7.86,7.63 12.73,18.14 12.73,29.69l0 271.54 -86.04 0 0 82.21 -7.29 0 -335.25 0 0 -82.21 -86.04 0 0 -271.54c0,-11.55 4.88,-22.07 12.73,-29.69 7.84,-7.61 18.65,-12.34 30.53,-12.34l7.52 0 0 -42.57c0,-10.23 3.15,-19.79 8.57,-27.8l0 -130.76c0,-2.81 1.19,-5.38 3.12,-7.24l0.84 -0.73c0.38,-2.48 1.6,-4.71 3.36,-6.42 2.13,-2.07 5.07,-3.36 8.3,-3.36l50.27 0c3.22,0 6.17,1.29 8.3,3.36 1.76,1.71 2.97,3.94 3.36,6.42l0.83 0.73c1.93,1.87 3.12,4.44 3.12,7.24l0 40.18 0.84 -0.83c9.5,-9.23 22.6,-14.96 37.01,-14.96l3.99 0 0 -63.71 7.29 0 20.21 0 0 -185.03 -365.55 0 0 -14.21zm445.25 14.21l-65.11 0 0 185.03 65.11 0 0 -185.03zm-4.89 219.49l32.4 0 0 -20.26 -120.12 0 0 20.26 32.4 0 0 14.21 -32.4 0 0 15.05 120.12 0 0 -15.05 -32.4 0 0 -14.21zm109.82 112.49l0 -99.15 7.29 0 0 99.15 7.42 0 0 -99.15 7.3 0 0 99.42c3.58,0.36 7.06,1.07 10.4,2.11l0 -101.52 7.29 0 0 104.39c2.08,1 4.09,2.14 6.01,3.39l0 -112.3 -3.82 0 0 -7.51 -44.67 0 0 7.51 -3.82 0 0 67.14c0.12,1.4 0.18,2.81 0.18,4.24l0 32.29 6.41 0zm-21 -32.29l-0.18 0 0 -3.6c-0.88,-8.68 -4.89,-16.5 -10.91,-22.35 -6.85,-6.66 -16.33,-10.8 -26.75,-10.8l-3.99 0 -149.3 0 -3.99 0c-10.42,0 -19.89,4.14 -26.75,10.8 -6.84,6.65 -11.09,15.84 -11.09,25.94l0 46.5 -37.63 0c-10.42,0 -19.89,4.14 -26.75,10.8 -6.84,6.65 -11.09,15.83 -11.09,25.94l0 278.74 -50.78 0 0 63.21 71.46 0 342.54 0 71.46 0 0 -63.21 -50.78 0 0 -278.74c0,-10.11 -4.25,-19.29 -11.09,-25.94 -6.86,-6.66 -16.32,-10.8 -26.75,-10.8l-37.63 0 0 -46.5zm-261.44 32.29l0 -99.15 7.29 0 0 99.15 6.59 0 0 -32.29 0 -71.38 -3.82 0 0 -7.51 -44.66 0 0 7.51 -3.82 0 0 112.41c1.92,-1.26 3.92,-2.41 6.01,-3.42l0 -104.48 7.29 0 0 101.58c3.34,-1.05 6.82,-1.77 10.41,-2.15l0 -99.43 7.29 0 0 99.15 7.41 0zm39.52 99.68l209.12 0 0 14.21 -209.12 0 0 -14.21zm23.27 -50.01l162.56 0 0 14.21 -162.56 0 0 -14.21zm29.62 -56.18l103.32 0 0 14.21 -103.32 0 0 -14.21zm16.22 -45.21l70.88 0 0 14.21 -70.88 0 0 -14.21zm279.05 367.2l0 -179.92c0,-7.66 -3.22,-14.62 -8.4,-19.65 -5.2,-5.05 -12.38,-8.18 -20.27,-8.18l-7.52 0 0 207.75 36.2 0zm-128.83 16.95l-235.1 0 0 -177.94 59.52 0 0 14.21 -44.93 0 0 149.53 220.51 0 0 14.21zm-147.67 -177.94l154.97 0 0 142.93 -14.59 0 0 -128.72 -140.38 0 0 -14.21zm190.45 252.61l-313.37 0 0 68 313.37 0 0 -68z"/>
 </g>
</svg>
