<?xml version="1.0" encoding="UTF-8"?>
<!DOCTYPE svg PUBLIC "-//W3C//DTD SVG 1.1//EN" "http://www.w3.org/Graphics/SVG/1.1/DTD/svg11.dtd">
<!-- Creator: CorelDRAW -->
<svg xmlns="http://www.w3.org/2000/svg" xml:space="preserve" width="1.69291in" height="1.69291in" version="1.1" style="shape-rendering:geometricPrecision; text-rendering:geometricPrecision; image-rendering:optimizeQuality; fill-rule:evenodd; clip-rule:evenodd"
viewBox="0 0 835.48 835.48"
 xmlns:xlink="http://www.w3.org/1999/xlink"
 xmlns:xodm="http://www.corel.com/coreldraw/odm/2003">
 <defs>
  <style type="text/css">
   <![CDATA[
    .fil0 {fill:white;fill-rule:nonzero}
   ]]>
  </style>
 </defs>
 <g id="Layer_x0020_1">
  <metadata id="CorelCorpID_0Corel-Layer"/>
  <path class="fil0" d="M15.52 0l208.98 0c4.27,0 8.16,1.74 10.97,4.55 2.81,2.81 4.55,6.69 4.55,10.97l0 117.99 -37.93 0 0 11.68 584.04 0c13.55,0 25.88,5.53 34.83,14.42 8.96,8.9 14.52,21.19 14.52,34.68l0 170.56c0,13.49 -5.56,25.77 -14.52,34.68 -8.95,8.9 -21.29,14.42 -34.83,14.42l-584.04 0 0 11.67 37.93 0 0 409.85 -240.02 0 0 -819.96c0,-4.27 1.74,-8.16 4.55,-10.97 2.81,-2.81 6.69,-4.55 10.97,-4.55zm173.08 133.51l-24.45 0 0 292.12 24.45 0 0 -292.12zm13.49 25.17l0 241.79 584.04 0c9.87,0 18.84,-4.01 25.34,-10.47 6.49,-6.45 10.52,-15.35 10.52,-25.14l0 -170.56c0,-9.79 -4.03,-18.7 -10.52,-25.15 -6.49,-6.46 -15.47,-10.47 -25.34,-10.47l-584.04 0zm-188.6 611.56l213.05 0 0 -331.12 -75.87 0 0 -319.1 75.87 0 0 -104.5c0,-0.55 -0.23,-1.06 -0.6,-1.43 -0.37,-0.37 -0.88,-0.6 -1.43,-0.6l-208.98 0c-0.55,0 -1.06,0.23 -1.43,0.6 -0.37,0.37 -0.6,0.88 -0.6,1.43l0 754.71zm213.05 13.49l-213.05 0 0 38.27 213.05 0 0 -38.27z"/>
 </g>
</svg>
