<?xml version="1.0" encoding="UTF-8"?>
<!DOCTYPE svg PUBLIC "-//W3C//DTD SVG 1.1//EN" "http://www.w3.org/Graphics/SVG/1.1/DTD/svg11.dtd">
<!-- Creator: CorelDRAW -->
<svg xmlns="http://www.w3.org/2000/svg" xml:space="preserve" width="1.69292in" height="1.69292in" version="1.1" style="shape-rendering:geometricPrecision; text-rendering:geometricPrecision; image-rendering:optimizeQuality; fill-rule:evenodd; clip-rule:evenodd"
viewBox="0 0 5401.55 5401.55"
 xmlns:xlink="http://www.w3.org/1999/xlink"
 xmlns:xodm="http://www.corel.com/coreldraw/odm/2003">
 <defs>
  <style type="text/css">
   <![CDATA[
    .fil0 {fill:white;fill-rule:nonzero}
   ]]>
  </style>
 </defs>
 <g id="Layer_x0020_1">
  <metadata id="CorelCorpID_0Corel-Layer"/>
  <path class="fil0" d="M2416.79 687.68c25.48,0 46.14,20.76 46.14,46.37 0,25.6 -20.66,46.37 -46.14,46.37l-2324.52 0 0 4528.4 4443.78 0 0 -2365.51c0,-25.6 20.65,-46.37 46.13,-46.37 25.48,0 46.14,20.76 46.14,46.37l0 2411.87c0,25.6 -20.66,46.38 -46.14,46.38l-4536.04 0c-25.48,0 -46.14,-20.78 -46.14,-46.38l0 -4621.13c0,-25.6 20.66,-46.37 46.14,-46.37l2370.65 0zm2984.76 1728.91c0,25.6 -20.66,46.37 -46.14,46.37 -25.46,0 -46.13,-20.76 -46.13,-46.37 0,-641.7 -258.81,-1222.69 -677.21,-1643.22 -408.34,-410.4 -968.78,-667.98 -1589.02,-680.14l0.01 389.54c513.21,12.07 976.76,226.07 1314.99,566.01 348.29,350.06 563.72,833.66 563.72,1367.81 0,25.6 -20.65,46.37 -46.13,46.37l-479.77 0c-25.48,0 -46.13,-20.76 -46.13,-46.37 0,-375.41 -151.41,-715.28 -396.17,-961.3 -234.69,-235.87 -555.27,-385.44 -910.51,-397.36l0.01 389.74c248.21,11.71 471.92,117.64 636.46,283.03 174.66,175.54 282.69,418.05 282.69,685.88 0,25.6 -20.65,46.37 -46.13,46.37 -25.48,0 -46.14,-20.76 -46.14,-46.37 0,-242.24 -97.71,-461.59 -255.64,-620.32 -157.94,-158.74 -376.17,-256.94 -617.19,-256.94l0 -0.19c-25.37,0 -45.95,-20.69 -45.95,-46.18l-0.01 -478.07 -0.19 -4.12c0,-25.6 20.66,-46.37 46.14,-46.37 398.97,0 760.21,162.56 1021.69,425.35 251.33,252.62 410.5,597.91 422.45,980.48l387.67 0c-12.05,-490.15 -214.63,-932.8 -536.11,-1255.88 -331.58,-333.26 -789.7,-539.4 -1295.7,-539.4l0 -0.18c-25.37,0 -45.95,-20.69 -45.95,-46.19l-0.01 -478.09 -0.19 -4.11c0,-25.6 20.66,-46.38 46.14,-46.38 663.94,0 1265.07,270.5 1700.19,707.83 435.13,437.31 704.26,1041.48 704.26,1708.77zm-3656.98 1174.23c0,4.15 -0.8,7.73 -2.36,10.72 -1.58,2.98 -5.14,5.38 -10.88,7.35 -5.93,1.78 -14.23,3.19 -25.48,3.97 -11.26,0.8 -26.48,1.19 -45.64,1.19 -16.19,0 -29.04,-0.39 -38.7,-1.19 -9.7,-0.78 -17.4,-2.19 -22.93,-4.37 -5.53,-2.17 -9.5,-4.76 -11.85,-8.14 -2.19,-3.38 -4.15,-7.35 -5.74,-11.91l-67.54 -168.55c-8.1,-19.06 -16,-36.13 -23.72,-50.82 -7.7,-14.9 -16.41,-27.18 -25.88,-37.13 -9.47,-9.94 -20.54,-17.27 -33,-22.42 -12.24,-4.96 -26.66,-7.55 -42.85,-7.55l-47.6 0 0 287.68c0,3.76 -1.19,7.34 -3.77,10.31 -2.55,3.19 -6.71,5.77 -12.45,7.75 -5.72,1.78 -13.42,3.35 -23.1,4.56 -9.48,1.21 -21.93,1.8 -36.76,1.8 -14.61,0 -26.86,-0.59 -36.73,-1.8 -9.89,-1.21 -17.57,-2.78 -23.3,-4.56 -5.74,-1.98 -9.89,-4.56 -12.06,-7.55 -2.36,-3.18 -3.54,-6.76 -3.54,-10.51l0 -683.73c0,-17.07 4.33,-29.39 13.03,-36.93 8.69,-7.55 19.37,-11.33 31.98,-11.33l194 0c19.56,0 35.95,0.4 48.6,1.19 12.62,0.82 24.29,1.78 34.75,2.8 30.05,4.35 57.11,11.69 81.2,22.21 24.11,10.33 44.63,24.04 61.45,40.93 16.76,16.85 29.6,36.72 38.49,59.73 8.88,23.04 13.27,49.43 13.27,79.43 0,25.01 -3.18,48.05 -9.52,68.69 -6.49,20.85 -15.78,39.29 -28.21,55.59 -12.27,16.29 -27.49,30.39 -45.65,42.28 -18.16,12.11 -38.9,21.64 -62.03,29.18 11.24,5.38 21.73,11.92 31.62,19.66 9.86,7.75 19.16,17.27 27.86,28.38 8.67,11.13 16.98,23.64 24.67,37.95 7.71,14.08 15.21,30.16 22.52,48.05l63.41 148.69c5.73,14.67 9.67,25.4 11.46,32.35 1.97,6.75 2.96,12.11 2.96,16.09zm-196.74 -511.21c0,-24.83 -5.55,-45.88 -16.8,-62.75 -11.27,-17.07 -29.63,-29.19 -55.12,-36.13 -7.7,-1.98 -16.39,-3.38 -26.27,-4.56 -9.89,-1.19 -23.49,-1.8 -40.89,-1.8l-68.34 0 0 213.21 77.62 0c21.72,0 40.5,-2.56 56.7,-7.93 16.39,-5.16 29.82,-12.51 40.69,-22.06 10.87,-9.32 18.97,-20.83 24.29,-33.94 5.34,-13.09 8.1,-27.79 8.1,-44.05zm728.91 -159.23c0,11.72 -0.39,21.46 -1.39,29.38 -0.98,7.94 -2.54,14.3 -4.74,19.06 -2.17,4.56 -4.53,8.14 -7.11,10.31 -2.75,2.4 -5.93,3.58 -9.27,3.58l-245.34 0 0 202.51 230.13 0c3.55,0 6.7,0.99 9.28,2.98 2.76,1.78 5.14,5.16 7.31,9.72 2.16,4.77 3.54,10.92 4.53,18.68 0.98,7.73 1.58,17.45 1.58,29.18 0,11.51 -0.6,21.24 -1.58,28.97 -0.99,7.75 -2.37,14.11 -4.53,19.26 -2.17,5 -4.55,8.54 -7.31,10.73 -2.59,2.19 -5.73,3.19 -9.28,3.19l-230.13 0 0 280.52c0,4.18 -1.19,7.95 -3.55,11.1 -2.17,2.98 -6.33,5.58 -12.44,7.75 -5.94,2.19 -13.86,3.76 -23.33,4.96 -9.69,1.21 -22.13,1.8 -37.13,1.8 -14.62,0 -26.87,-0.59 -36.74,-1.8 -9.87,-1.21 -17.79,-2.78 -23.52,-4.96 -5.73,-1.98 -9.86,-4.77 -12.44,-7.75 -2.56,-3.15 -3.74,-6.92 -3.74,-11.1l0 -682.54c0,-17.07 4.32,-29.39 13.03,-36.93 8.69,-7.55 19.37,-11.33 32.18,-11.33l353.02 0c3.34,0 6.52,0.99 9.27,3.18 2.58,2.2 4.94,5.56 7.11,10.53 2.2,4.77 3.76,11.32 4.74,19.47 1,8.14 1.39,18.05 1.39,29.57zm276.16 669.25c0,3.76 -1.21,7.34 -3.76,10.51 -2.56,2.99 -6.72,5.56 -12.46,7.55 -5.72,1.78 -13.63,3.35 -23.11,4.56 -9.67,1.21 -22.12,1.8 -37.13,1.8 -14.61,0 -26.86,-0.59 -36.74,-1.8 -9.87,-1.21 -17.77,-2.78 -23.5,-4.56 -5.73,-1.98 -9.86,-4.56 -12.45,-7.55 -2.55,-3.18 -3.76,-6.76 -3.76,-10.51l0 -711.14c0,-3.77 1.21,-7.35 3.76,-10.53 2.59,-2.96 6.72,-5.54 12.83,-7.54 5.95,-1.97 13.64,-3.37 23.31,-4.57 9.7,-1.19 21.95,-1.8 36.55,-1.8 15.01,0 27.46,0.6 37.13,1.8 9.48,1.21 17.4,2.6 23.11,4.57 5.74,2 9.9,4.57 12.46,7.54 2.55,3.18 3.76,6.76 3.76,10.53l0 711.14zm785.38 -366.69c0,69.09 -8.88,128.07 -26.87,177.28 -17.98,49.05 -43.65,88.95 -77.23,120.12 -33.59,30.98 -74.48,53.81 -122.46,68.31 -48.01,14.48 -105.3,21.82 -171.66,21.82l-178.78 0c-12.84,0 -23.52,-3.77 -32.2,-11.31 -8.71,-7.56 -13.04,-19.86 -13.04,-36.93l0 -656.34c0,-17.07 4.33,-29.39 13.04,-36.93 8.68,-7.55 19.36,-11.33 32.2,-11.33l191.99 0c66.78,0 123.47,7.95 169.88,23.64 46.6,15.68 85.72,38.92 117.53,69.69 31.82,30.94 56.11,69.08 72.71,114.34 16.61,45.46 24.88,97.88 24.88,157.64zm-157.64 5.35c0,-35.73 -4.15,-68.67 -12.45,-99.46 -8.28,-30.58 -21.54,-56.98 -39.9,-79.4 -18.37,-22.44 -41.88,-40.11 -70.53,-52.62 -28.83,-12.51 -66.36,-18.86 -113.16,-18.86l-76.87 0 0 511.02 79.23 0c41.67,0 76.83,-5.36 105.27,-16.27 28.46,-10.73 52.37,-27.21 71.51,-49.05 18.97,-21.83 33.2,-49.03 42.66,-81.6 9.5,-32.55 14.23,-70.47 14.23,-113.76z"/>
 </g>
</svg>
