<?xml version="1.0" encoding="UTF-8"?>
<!DOCTYPE svg PUBLIC "-//W3C//DTD SVG 1.1//EN" "http://www.w3.org/Graphics/SVG/1.1/DTD/svg11.dtd">
<!-- Creator: CorelDRAW -->
<svg xmlns="http://www.w3.org/2000/svg" xml:space="preserve" width="1.69291in" height="1.69291in" version="1.1" style="shape-rendering:geometricPrecision; text-rendering:geometricPrecision; image-rendering:optimizeQuality; fill-rule:evenodd; clip-rule:evenodd"
viewBox="0 0 5401.53 5401.53"
 xmlns:xlink="http://www.w3.org/1999/xlink"
 xmlns:xodm="http://www.corel.com/coreldraw/odm/2003">
 <defs>
  <style type="text/css">
   <![CDATA[
    .fil0 {fill:white;fill-rule:nonzero}
   ]]>
  </style>
 </defs>
 <g id="Layer_x0020_1">
  <metadata id="CorelCorpID_0Corel-Layer"/>
  <path class="fil0" d="M5278.82 4248.41l-350.51 -333.66 -974.36 1026.65 340.56 336.53 984.31 -1029.52zm-4043.31 -3257.23c1.88,-1.63 2.98,-4.11 3.18,-6.71 0.2,-2.68 -0.45,-5.34 -1.97,-7.31l-0.43 -0.36c-1.65,-1.75 -3.71,-2.76 -5.78,-2.91 -2.1,-0.16 -4.2,0.35 -5.82,1.58l-0.35 0.43c-37.8,33.01 -68.71,67.49 -92.64,103.46 -23.58,35.42 -40.67,72.59 -51.19,111.43l0 0.16c-10.64,39.19 -14.61,79.75 -11.91,121.65 2.76,42.76 12.36,87.08 28.82,132.85l0.2 0.36c0.94,2.42 2.64,4.26 4.59,5.19 1.9,0.89 4.18,1.08 6.34,0.31l0.52 -0.18c2.17,-0.89 3.84,-2.56 4.74,-4.52 1.09,-2.35 1.26,-5.26 0.26,-8.04l0.15 -0.05c-15.54,-43.24 -24.75,-84.72 -27.62,-124.41 -2.95,-40.9 0.63,-80.06 10.77,-117.44l0 -0.16c10.11,-37.28 27.03,-73.42 50.7,-108.34 23.09,-34.1 52.22,-66.45 87.28,-96.99l0.18 0zm89.75 -0.25c-1.86,24.47 -13.03,48.31 -32.96,65.7 -29.93,26.22 -54.19,52.9 -72.61,80.09 -17.86,26.37 -30.71,53.89 -38.48,82.53 -7.62,28.06 -10.3,57.66 -8.05,88.75 2.32,32.23 9.86,66.05 22.56,101.39l0.15 0c8.84,24.78 6.92,50.98 -3.32,73.22 -10.35,22.52 -29.19,41.05 -53.97,50.17l-0.85 0.35c-24.68,8.81 -50.55,6.73 -72.54,-3.72 -21.92,-10.41 -39.98,-29.16 -49.03,-53.74l-0.2 -0.89c-19.34,-53.83 -30.66,-106.1 -33.93,-156.74 -3.34,-51.69 1.53,-101.64 14.61,-149.82 13.03,-47.87 33.95,-93.48 62.75,-136.73 28.52,-42.87 64.54,-83.25 107.97,-121.04l1.37 -0.92c20,-16.85 44.71,-24.08 68.57,-22.2 24.04,1.9 47.4,12.9 64.45,32.51l0.92 1.37c17.06,20.26 24.43,45.46 22.59,69.73zm-199.42 -178.89c2.1,-1.57 3.4,-3.92 3.76,-6.36 0.38,-2.64 -0.08,-5.31 -1.43,-7.42l-0.13 0.09 -0.5 -0.68c-1.41,-1.83 -3.4,-2.95 -5.45,-3.25 -2.06,-0.31 -4.18,0.06 -5.89,1.18l-0.34 0.31c-64.89,48.99 -117.63,101.79 -157.99,158.42 -39.77,55.71 -67.83,115.57 -84.1,179.46 -16.27,63.9 -20.63,131.38 -12.99,202.41 7.74,72.03 27.85,148.11 60.33,228.23l0.25 0.6c1,2.21 2.66,3.82 4.53,4.61l0.18 0c1.85,0.78 4.04,0.85 6.1,0.01l0.18 0c2.34,-1.02 4.07,-2.89 4.99,-5.11 0.97,-2.37 1.04,-5.21 0.01,-7.9 -31.08,-76.45 -50.54,-149.22 -58.42,-218.21 -8.06,-70.5 -4.15,-136.97 11.75,-199.38 15.85,-62.22 43.76,-120.89 83.59,-175.94 39.05,-53.98 89.64,-104.35 151.58,-151.07zm89.65 5.87c-3.55,24.45 -16.31,47.5 -37.37,63.37 -55,41.48 -99.56,85.75 -133.58,132.74 -33.24,45.95 -56.5,94.78 -69.65,146.41 -13.32,52.29 -16.58,108.37 -9.74,168.15 7,61.07 24.53,126.26 52.6,195.48l0 0.18c9.86,24.37 8.99,50.6 -0.29,73.23 -9.37,22.84 -27.38,42.04 -51.77,52.22l-0.94 0.35c-24.19,9.87 -50.17,8.91 -72.63,-0.62 -22.25,-9.52 -40.96,-27.41 -51.05,-51.47l-0.41 -0.94c-35.44,-87.39 -57.47,-171.29 -66.1,-251.67 -8.78,-81.61 -3.74,-159.27 15,-232.94 18.88,-74.1 51.47,-143.58 97.68,-208.34 45.67,-64.05 104.53,-123.19 176.38,-177.36l1.34 -0.83c21.17,-15.44 46.34,-20.93 70.04,-17.36 23.82,3.58 46.28,16.22 61.97,37.03 0.44,0.41 0.67,0.79 0.84,1.36 15.58,21.35 21.19,46.96 17.69,71zm-474.44 838.94l0.1 0.19c1.22,2.19 3.1,3.74 5.19,4.42 1.98,0.67 4.17,0.59 6.04,-0.35l0.19 -0.09c2.29,-1.28 3.93,-3.3 4.64,-5.53 0.8,-2.51 0.67,-5.39 -0.55,-7.93 -49.66,-98.46 -81.73,-193.64 -95.69,-285.35 -14.17,-92.97 -9.77,-182.66 13.77,-268.87 23.53,-86.19 66.4,-169.04 129.11,-248.39 61.79,-78.15 142.64,-152.8 243.06,-223.76l0.08 0.11c1.97,-1.43 3.28,-3.81 3.74,-6.39 0.48,-2.71 -0.01,-5.59 -1.6,-7.89l-0.1 -0.25c-1.46,-1.97 -3.49,-3.23 -5.62,-3.61 -2.03,-0.34 -4.26,0.11 -6.18,1.43l-0.2 0.14c-104.06,73.55 -187.42,150.94 -250.58,232.05 -62.27,79.96 -105.07,163.69 -128.91,251 -23.84,87.37 -28.62,178.29 -14.84,272.55 13.97,95.48 46.96,194.38 98.36,296.52zm-76.89 40.03l-0.52 -0.99c-55.74,-110.73 -91.57,-218.45 -106.85,-322.99 -15.48,-105.76 -9.94,-208.42 17.22,-307.86 26.89,-98.51 74.77,-192.43 144.18,-281.57 68.54,-88.01 157.99,-171.29 268.91,-249.69l1.21 -0.83c21.42,-14.66 46.75,-19.32 70.53,-15l0.18 0c23.73,4.33 45.85,17.67 60.9,38.94l0.83 1.22c14.92,21.83 19.75,47.66 15.51,71.73 -4.27,24.13 -17.76,46.79 -39.47,62.13l0 0.16c-93.9,66.35 -168.77,135.23 -225.07,206.44 -55.36,70.04 -93.03,142.6 -113.48,217.51 -20.19,73.9 -23.82,151.69 -11.38,233.23 12.61,82.82 41.84,169.31 87.13,259.25l0 0.18c11.78,23.48 13.13,49.63 5.73,72.88 -7.51,23.59 -23.85,44.28 -47.13,56.38 -0.34,0 -0.84,0.35 -1.16,0.5 -23.39,11.77 -49.18,12.98 -72.09,5.46l-0.18 0c-22.86,-7.52 -42.97,-23.75 -55.01,-46.91l0 -0.18zm1566.52 461.76c-27.36,64.25 -60.89,114.95 -100.38,152.15 -41.47,39.07 -89.07,63.14 -142.66,72.33l-14.61 -85.55c36.49,-6.26 69.15,-22.89 97.86,-49.92 30.68,-28.89 57.39,-69.87 80.01,-122.95l79.79 33.94zm690.3 149.76l-260.15 -128.12 -34.36 116.92 311.84 304.62c-12.49,-43.94 -20.54,-87.93 -24.14,-131.99 -4.4,-53.86 -2.14,-107.68 6.81,-161.44zm-235.36 -212.54l255.57 125.86c9.8,-32.64 22.08,-65.27 36.84,-97.87l79.1 35.64c-45.9,101.42 -64.63,202.63 -56.39,303.57 7.8,95.33 39.73,191.14 95.54,287.3l203.65 20.71 -8.49 86.21 -225.49 -22.94 -25.98 -12.05 -954.81 -932.65c-47.81,-29.18 -90.62,-43.84 -130.69,-43.85 -40.22,-0.03 -80.03,14.85 -121.89,44.61 -8.84,6.96 -17.93,14.61 -27.2,22.95 -57.08,51.45 -96.46,111.8 -102.84,181.38 -6.54,71.33 20.66,155.19 97.16,253.31 11.32,14.51 24.34,29.97 39.12,46.4l562.07 529.49 4.57 5.09c105.88,137.68 179.96,292.1 271.43,482.77 23.14,48.24 47.57,99.12 77.73,160.29 91.94,137.39 186.1,257.51 284.95,360.61 99,103.27 202.48,189.37 312.85,258.53l4.07 2.73 676.59 538.18c254.78,-268.39 509.55,-536.77 764.24,-805.24 -76.78,-113.08 -148.98,-233.23 -213.39,-365.09 -70.28,-143.79 -131.63,-301.84 -180.17,-480.25l-184.54 -933.96c-31.66,-106.31 -76.68,-181.92 -131.55,-234.75 -54.34,-52.36 -119.41,-83.13 -191.28,-100.02l-1062.64 -221.2 -148.14 504.26zm-567.66 860.79l136.67 547.48c13.27,48.26 31.87,78.98 52.23,93.91 6.05,4.45 12.11,7.22 17.95,8.35l0.16 0c5.68,1.12 11.46,0.87 17.11,-0.68 15.02,-4.11 30.88,-16.51 45.85,-36.58 34.91,-54.57 60.95,-109.45 79.58,-164.36 17.41,-51.3 28.43,-102.58 34.24,-153.62 -50.69,-98.66 -101.49,-186.29 -162.77,-266.45l-160.66 -151.39c-13.62,44.1 -33.63,85.27 -60.36,123.33zm447.6 423.28c-4.66,17.59 -9.94,35.15 -15.88,52.68 -20.94,61.74 -50.2,123.31 -89.41,184.41l-1.52 2.21c-27.03,36.84 -59.64,60.62 -93.92,69.99 -18.86,5.15 -37.89,6.02 -56.48,2.37 -18.38,-3.63 -36.18,-11.46 -52.76,-23.63 -35.42,-25.98 -65.87,-72.86 -84.82,-142.11l-122.56 -490.68c-34.71,31.42 -75.52,59.76 -122.69,84.8l-15.8 4.74c-86.65,9.23 -139.16,-13.28 -170.84,-55.08 -29.7,-39.23 -36.38,-91.98 -34.85,-149.51l19.17 -425.34 -1543.49 -480.45 -4.26 -1.7c-92.19,-39.93 -144.97,-101.15 -165.71,-179.59 -19.51,-73.77 -8.93,-160.97 24.8,-258.41l409.36 -1359.8 1.02 -2.73c28.73,-77.04 65.57,-142.42 121.8,-179.71 59.05,-39.18 134.33,-46.15 235.02,-2.36l1968.08 606.98c101.52,23.13 175.42,63.56 217.39,123.91 43.82,63.01 51.7,143.76 18.77,244.51l-147.69 502.72 1057.82 220.09c86.26,20.27 164.93,57.77 231.69,122.09 65.81,63.39 119.11,152.16 155.38,275.3l1.03 3.91 183.73 930.21c46.96,172.42 106.26,325.1 174.13,463.98 59.79,122.4 126.08,233.95 196.36,338.73l66.78 -70.4 31.44 29.95 444.88 423.52 -1105.24 1156 -463.69 -458.21 140.57 -148.06 -669.68 -532.7c-115.87,-73 -223.82,-162.85 -326.37,-269.8 -103.02,-107.45 -200.89,-232.38 -296.17,-375.05l-2.88 -4.92c-25.88,-52.39 -53.24,-109.4 -79.25,-163.67 -11.33,-23.62 -22.37,-46.68 -33.25,-69.18zm-755.26 -893.4l-19.7 436.48c-1.03,39.69 2.29,74.21 17.52,94.34 12.64,16.68 38.06,25.58 83.96,21.95 65.25,-35.76 115.09,-78.08 150.58,-126.47 32.2,-43.85 53.04,-93.22 63.34,-147.65l-295.7 -278.64zm-83.07 -81.36l0.4 -8.82c-88.55,-115.32 -119.68,-218.32 -111.31,-309.44 8.63,-94.12 58.71,-172.9 131.01,-238.04 10,-9.02 21.22,-18.35 33.45,-27.89l1.53 -1.19c56.8,-40.41 113,-60.59 172.16,-60.55 58.25,0.03 117.19,19.75 180.29,59.04l7.31 5.78 414.2 404.59 367.19 -1250.03c23.8,-72.83 20.2,-128.22 -7.55,-168.11 -29.27,-42.09 -86.29,-71.35 -167.23,-89.5l-3.4 -0.84 -1971.86 -608.15 -4.75 -1.7c-70.43,-30.98 -119.15,-28.79 -154.08,-5.6 -37.62,24.93 -64.82,74.73 -87.57,135.06l-410.01 1361.51c-28.64,82.13 -38.34,153.16 -23.4,209.69 13.62,51.54 49.67,92.66 113.21,120.93l1520.43 473.26z"/>
 </g>
</svg>
