<?xml version="1.0" encoding="UTF-8"?>
<!DOCTYPE svg PUBLIC "-//W3C//DTD SVG 1.1//EN" "http://www.w3.org/Graphics/SVG/1.1/DTD/svg11.dtd">
<!-- Creator: CorelDRAW -->
<svg xmlns="http://www.w3.org/2000/svg" xml:space="preserve" width="1.69292in" height="1.69292in" version="1.1" style="shape-rendering:geometricPrecision; text-rendering:geometricPrecision; image-rendering:optimizeQuality; fill-rule:evenodd; clip-rule:evenodd"
viewBox="0 0 638.09 638.09"
 xmlns:xlink="http://www.w3.org/1999/xlink"
 xmlns:xodm="http://www.corel.com/coreldraw/odm/2003">
 <defs>
  <style type="text/css">
   <![CDATA[
    .fil0 {fill:white}
   ]]>
  </style>
 </defs>
 <g id="Layer_x0020_1">
  <metadata id="CorelCorpID_0Corel-Layer"/>
  <path class="fil0" d="M-0 0l638.09 0 0 10.65 -256.27 0 0 63.4 2.62 0c8.8,0 16.81,3.45 22.62,9.01 5.7,5.43 9.28,12.9 9.42,21.13l96.55 0c13.67,0 26.1,5.35 35.1,13.96 9,8.61 14.59,20.49 14.59,33.57l0 438.85c0,13.07 -5.59,24.96 -14.59,33.57 -9,8.61 -21.43,13.96 -35.1,13.96l-381.36 0c-13.67,0 -26.1,-5.35 -35.1,-13.96 -9,-8.61 -14.59,-20.49 -14.59,-33.57l0 -438.85c0,-13.07 5.59,-24.96 14.59,-33.57 9,-8.61 21.43,-13.96 35.1,-13.96l96.55 0c0.14,-8.23 3.72,-15.71 9.41,-21.14 5.82,-5.55 13.84,-9 22.63,-9l2.62 0 0 -63.4 -262.89 0 0 -10.65zm370.68 10.65l-96.65 0 0 63.4 96.65 0 0 -63.4zm-162.31 438.25c0,-30.1 12.76,-57.36 33.39,-77.08 20.63,-19.73 49.13,-31.93 80.6,-31.93 31.48,0 59.98,12.2 80.6,31.93 20.63,19.73 33.39,46.98 33.39,77.08l-11.14 0c0,-27.16 -11.51,-51.75 -30.12,-69.55 -18.61,-17.8 -44.32,-28.81 -72.73,-28.81 -28.4,0 -54.11,11.01 -72.72,28.81 -18.61,17.8 -30.12,42.39 -30.12,69.55l-11.14 0zm113.99 -250.97c16.42,0 31.29,6.37 42.05,16.66 10.76,10.29 17.42,24.51 17.42,40.21 0,15.7 -6.66,29.92 -17.42,40.21 -10.76,10.29 -25.63,16.66 -42.05,16.66 -16.42,0 -31.29,-6.37 -42.05,-16.66 -10.76,-10.29 -17.42,-24.51 -17.42,-40.21 0,-15.7 6.66,-29.92 17.42,-40.21 10.76,-10.29 25.63,-16.66 42.05,-16.66zm34.17 24.19c-8.74,-8.36 -20.83,-13.53 -34.17,-13.53 -13.34,0 -25.43,5.17 -34.17,13.53 -8.74,8.36 -14.15,19.92 -14.15,32.68 0,12.76 5.41,24.32 14.15,32.68 8.74,8.36 20.83,13.53 34.17,13.53 13.34,0 25.43,-5.17 34.17,-13.53 8.74,-8.36 14.15,-19.92 14.15,-32.68 0,-12.76 -5.41,-24.32 -14.15,-32.68zm-126.48 -107.27l-98.37 0c-10.6,0 -20.23,4.15 -27.22,10.83 -6.99,6.68 -11.33,15.9 -11.33,26.03l0 438.85c0,10.13 4.34,19.35 11.33,26.04 6.99,6.68 16.63,10.83 27.22,10.83l381.36 0c10.6,0 20.23,-4.15 27.22,-10.83 6.99,-6.68 11.33,-15.9 11.33,-26.04l0 -438.85c0,-10.13 -4.34,-19.35 -11.33,-26.03 -6.99,-6.68 -16.63,-10.83 -27.22,-10.83l-98.37 0c-1.61,4.35 -4.23,8.26 -7.59,11.48l-0.02 0.02c-5.81,5.55 -13.82,9 -22.61,9l-124.18 0c-8.79,0 -16.8,-3.45 -22.61,-9l-0.02 -0.02c-3.35,-3.21 -5.97,-7.12 -7.59,-11.48zm154.4 -30.14l-2.62 0 -5.57 0 -113.36 0 -2.62 0c-5.76,0 -10.98,2.24 -14.76,5.86l0 0.02c-3.79,3.62 -6.14,8.62 -6.14,14.11 0,5.51 2.35,10.5 6.12,14.12l0.02 0.02c3.78,3.61 9,5.86 14.76,5.86l124.18 0c5.76,0 10.98,-2.24 14.76,-5.86l0.02 -0.02c3.78,-3.61 6.12,-8.61 6.12,-14.11 0,-5.49 -2.35,-10.49 -6.14,-14.12l0 -0.02c-3.78,-3.61 -9,-5.86 -14.76,-5.86zm-188.47 486.67l254.03 0 0 10.65 -254.03 0 0 -10.65zm-3.15 -45.21l258.44 0 0 10.65 -258.44 0 0 -10.65zm-22.69 -364.1l304.46 0c4.66,0 8.89,1.82 11.95,4.75 3.06,2.93 4.96,6.98 4.96,11.43l0 295.98c0,4.45 -1.9,8.5 -4.96,11.43 -3.06,2.93 -7.29,4.75 -11.95,4.75l-304.46 0c-4.66,0 -8.89,-1.82 -11.95,-4.75 -3.06,-2.93 -4.96,-6.98 -4.96,-11.43l0 -295.98c0,-4.45 1.9,-8.5 4.96,-11.43 3.06,-2.93 7.29,-4.75 11.95,-4.75zm304.46 10.65l-304.46 0c-1.58,0 -3.03,0.62 -4.07,1.62 -1.05,1 -1.7,2.38 -1.7,3.9l0 295.98c0,1.51 0.65,2.9 1.7,3.9 1.05,1 2.49,1.62 4.07,1.62l304.46 0c1.58,0 3.03,-0.62 4.07,-1.62 1.05,-1 1.7,-2.38 1.7,-3.9l0 -295.98c0,-1.51 -0.65,-2.9 -1.7,-3.9 -1.05,-1 -2.49,-1.62 -4.07,-1.62z"/>
 </g>
</svg>
